<!-- Generator: Adobe Illustrator 18.1.1, SVG Export Plug-In  -->
<svg version="1.1"
   xmlns="http://www.w3.org/2000/svg" xmlns:xlink="http://www.w3.org/1999/xlink" xmlns:a="http://ns.adobe.com/AdobeSVGViewerExtensions/3.0/"
   x="0px" y="0px" width="32px" height="32px" viewBox="0 0 32 32" enable-background="new 0 0 32 32" xml:space="preserve">
<defs>
</defs>
<path id="face_x5F_happy_2_" fill="#ffffff" d="M16,2c5.7,0,10,5,10,10v7c0,6.1-4,11-10,11c-6,0-10-4.9-10-11v-7C6,7,10.3,2,16,2
   M20,13.8c1,0,1.7-0.8,1.7-1.8S21,10.2,20,10.2c-1,0-1.8,0.8-1.8,1.8S19,13.8,20,13.8 M12,13.8c1,0,1.7-0.8,1.7-1.8S13,10.2,12,10.2
  S10.3,11,10.3,12S11,13.8,12,13.8 M16,26L16,26c3.2,0,5.8-2,6.9-5H9.1C10.2,24,12.9,26,16,26 M27,12c1.7,0,3,1.3,3,3
  c0,1.6-1.4,3.6-3,4V12 M5,12v7c-1.6-0.4-3-2.4-3-4C2,13.3,3.3,12,5,12 M16,0C9.6,0,5.1,4.9,4.2,10.1C1.7,10.4,0,12.4,0,15
  c0,2.2,1.6,5,4.1,5.8C4.9,27.3,9.7,32,16,32c6.3,0,11.1-4.7,11.9-11.2C30.4,20,32,17.3,32,15c0-2.6-1.7-4.6-4.2-5
  C26.9,4.9,22.4,0,16,0L16,0z"/>
</svg>
