<!-- Generator: Adobe Illustrator 18.1.1, SVG Export Plug-In  -->
<svg version="1.1"
   xmlns="http://www.w3.org/2000/svg" xmlns:xlink="http://www.w3.org/1999/xlink" xmlns:a="http://ns.adobe.com/AdobeSVGViewerExtensions/3.0/"
   x="0px" y="0px" width="32px" height="32px" viewBox="0 0 32 32" enable-background="new 0 0 32 32" xml:space="preserve">
<defs>
</defs>
<g>
  <path fill="#ffffff" d="M31.7,22.6c-0.4-0.8-1.2-1.3-2.2-1.4l-0.8-0.1l-0.2-1.4c-0.2-1.4-1.2-2.4-2.6-2.4c-0.5,0-0.9,0.1-1.4,0.4
    c-1.4-4-2.3-8.3-2.3-10.9C22.3,3,19.5,0,16,0c-3.5,0-6.3,3-6.3,6.7c0,2.6-1,6.9-2.3,10.9c-0.4-0.2-0.9-0.4-1.4-0.4
    c-1.4,0-2.4,1-2.6,2.4l-0.2,1.4l-0.8,0.1c-1,0.1-1.8,0.6-2.2,1.4c-0.4,0.8-0.4,1.9,0.2,2.7C0.9,26,4.6,32,9.2,32
    c0.8,0,1.5-0.2,2.2-0.5c0.8-0.4,1.4-0.9,1.9-1.5h5.3c0.5,0.6,1.1,1.1,1.9,1.5c0.7,0.3,1.4,0.5,2.2,0.5c4.6,0,8.3-6,8.8-6.7
    C32.1,24.4,32.1,23.4,31.7,22.6z M18,4c0.6,0,1,0.4,1,1s-0.4,1-1,1c-0.6,0-1-0.4-1-1S17.4,4,18,4z M14,4c0.6,0,1,0.4,1,1
    s-0.4,1-1,1c-0.6,0-1-0.4-1-1S13.4,4,14,4z M16,7c1.9,0,4,3,4,3h-8C12,10,14.1,7,16,7z M19.7,11c-0.6,0.9-2.2,2-3.7,2
    c-1.5,0-3.1-1.1-3.7-2H19.7z M10.6,29.7C10.1,29.9,9.7,30,9.2,30c-3.6,0-7-5.7-7-5.7c-0.3-0.6-0.1-1.1,0.5-1.1L3.9,23
    c0.6,0,1.2-0.6,1.2-1.3l0.2-1.9c0.1-0.4,0.3-0.7,0.6-0.7c0.2,0,0.3,0.1,0.5,0.2l1.6,1.1c0.2,0.2,0.5,0.2,0.8,0.2
    c0.4,0,0.7-0.1,1-0.4l0.9-0.9c0.2-0.2,0.3-0.2,0.5-0.2c0.3,0,0.5,0.2,0.7,0.6C11.9,19.8,14.6,27.9,10.6,29.7z M18.4,27.2
    C17.7,27.7,16.9,28,16,28c-0.9,0-1.7-0.3-2.4-0.8c0.7-3.3-0.6-7.4-0.7-7.7c-0.2-0.6-0.7-1.1-1.2-1.2c0.9-1.9,2.5-3.3,4.3-3.3
    c1.9,0,3.5,1.3,4.3,3.3c-0.6,0.1-1,0.6-1.2,1.2C19,19.7,17.7,23.9,18.4,27.2z M29.8,24.3c0,0-3.5,5.7-7,5.7c-0.5,0-0.9-0.1-1.4-0.3
    c-4-1.8-1.4-9.9-1.4-9.9c0.1-0.4,0.4-0.6,0.7-0.6c0.2,0,0.3,0.1,0.5,0.2l0.9,0.9c0.2,0.2,0.6,0.4,1,0.4c0.3,0,0.6-0.1,0.8-0.2
    l1.6-1.1c0.2-0.1,0.3-0.2,0.5-0.2c0.3,0,0.6,0.2,0.6,0.7l0.2,1.9c0.1,0.6,0.6,1.2,1.2,1.3l1.3,0.1C30,23.2,30.2,23.7,29.8,24.3z"/>
</g>
</svg>
