<!-- Generator: Adobe Illustrator 18.1.1, SVG Export Plug-In  -->
<svg version="1.1"
   xmlns="http://www.w3.org/2000/svg" xmlns:xlink="http://www.w3.org/1999/xlink" xmlns:a="http://ns.adobe.com/AdobeSVGViewerExtensions/3.0/"
   x="0px" y="0px" width="32px" height="32px" viewBox="0 0 32 32" enable-background="new 0 0 32 32" xml:space="preserve">
<defs>
</defs>
<g>
  <path fill="#ffffff" d="M30,5h-2c-0.9,0-1.6,0.5-1.9,1.3C23.7,7.1,22,9.3,22,12v7h-3.7c0.1-0.2,0.2-0.4,0.3-0.7
    c0.1-0.3,0.1-0.7,0.1-1c0.2-0.3,0.4-0.6,0.5-0.9c0.1-0.3,0.1-0.7,0.1-1c0.2-0.3,0.4-0.6,0.5-0.9c0.1-0.3,0.1-0.7,0.1-1
    c0.2-0.3,0.4-0.6,0.5-0.9c0.1-0.3,0.1-0.7,0.1-1c0.2-0.2,0.3-0.4,0.4-0.7c0.4-1,0.1-2.1-0.7-2.8l-0.6-0.5c0-1.1-0.7-2.2-1.8-2.5
    c0,0,0,0,0,0C17.3,5,17.1,5,16.9,5c-1.1,0-2.1,0.8-2.4,1.8l-0.1,0.5l-0.1,0h0c-0.3,0-0.6,0-0.8,0.1c-0.1-0.6-0.2-1.2-0.3-1.8
    c-0.8-3-2.4-5-4.6-5.6C8.3,0,8.1,0,8,0C7.1,0,6.3,0.6,6,1.5L0.8,21C0.7,21.4,0,24.3,0,25.5C0,29.1,2.9,32,6.5,32h19
    c3.6,0,6.5-2.9,6.5-6.5V7C32,5.9,31.1,5,30,5z M11.6,17.4c0.1-0.2,0.3-0.3,0.5-0.3l2.1,0l-1.9-1c-0.2-0.1-0.3-0.3-0.2-0.6
    c0.1-0.2,0.2-0.4,0.4-0.4c0,0,0,0,0.1,0l2.1,0l-1.9-1c-0.2-0.1-0.3-0.3-0.2-0.6c0.1-0.2,0.3-0.4,0.5-0.4c0,0,0,0,0,0l2.1,0l-1.9-1
    c-0.2-0.1-0.3-0.3-0.2-0.6c0.1-0.2,0.2-0.4,0.5-0.4l2.1,0l-1.9-1c-0.2-0.1-0.3-0.3-0.2-0.6c0.1-0.2,0.3-0.4,0.5-0.4h0l2.2,0L16.5,9
    l-0.2-0.2c-0.1-0.1-0.2-0.3-0.2-0.5l0.3-1C16.5,7.1,16.7,7,16.9,7c0,0,0.1,0,0.1,0c0.3,0.1,0.4,0.3,0.4,0.6l-0.2,0.7l1.4,1.3
    c0.2,0.1,0.2,0.4,0.1,0.6c-0.1,0.2-0.3,0.3-0.5,0.3h0l-2.1,0l1.9,1c0.2,0.1,0.3,0.3,0.2,0.6c-0.1,0.2-0.3,0.4-0.5,0.4c0,0,0,0,0,0
    l-2.1,0l1.9,1c0.2,0.1,0.3,0.3,0.2,0.6c-0.1,0.2-0.3,0.4-0.5,0.4l-2.1,0l1.9,1c0.2,0.1,0.3,0.3,0.2,0.6c-0.1,0.2-0.3,0.3-0.5,0.4
    l-2.1,0l1.9,1c0.2,0.1,0.3,0.3,0.2,0.6c-0.1,0.2-0.3,0.4-0.5,0.4c0,0,0,0,0,0l-2.2,0l-0.1,0.4l0.2,0.2c0.1,0.1,0.2,0.3,0.2,0.5
    L14,20h-1l0.2-0.8L11.8,18C11.6,17.8,11.6,17.6,11.6,17.4z M8,2c2.9,0.8,4.5,6.3,2.9,12.2L9.3,20H6.5c-1.5,0-2.8,0.6-3.8,1.5L8,2z
     M25.5,30h-19C4,30,2,28,2,25.5C2,23,4,21,6.5,21h19c2.5,0,4.5,2,4.5,4.5C30,28,28,30,25.5,30z M30,22.3c-1-1.4-2.6-2.3-4.5-2.3H24
    v-6h2v2c0,0.6,0.4,1,1,1s1-0.4,1-1c0-0.1,0-4,0-4h-4c0-2.2,1.8-4,4-4V7h2V22.3z"/>
  <path fill="#ffffff" d="M6.5,23.5c-1.1,0-2,0.9-2,2s0.9,2,2,2s2-0.9,2-2S7.6,23.5,6.5,23.5z M6.5,26.5c-0.6,0-1-0.4-1-1s0.4-1,1-1
    s1,0.4,1,1S7.1,26.5,6.5,26.5z"/>
  <path fill="#ffffff" d="M25.5,23.5c-1.1,0-2,0.9-2,2s0.9,2,2,2s2-0.9,2-2S26.6,23.5,25.5,23.5z M25.5,26.5c-0.6,0-1-0.4-1-1
    s0.4-1,1-1s1,0.4,1,1S26.1,26.5,25.5,26.5z"/>
</g>
</svg>
