<!-- Generator: Adobe Illustrator 18.1.1, SVG Export Plug-In  -->
<svg version="1.1"
   xmlns="http://www.w3.org/2000/svg" xmlns:xlink="http://www.w3.org/1999/xlink" xmlns:a="http://ns.adobe.com/AdobeSVGViewerExtensions/3.0/"
   x="0px" y="0px" width="32px" height="32.2px" viewBox="0 0 32 32.2" enable-background="new 0 0 32 32.2" xml:space="preserve">
<defs>
</defs>
<g>
  <path fill="#ffffff" d="M2,0C0.9,0,0,0.9,0,2v12.2c0,1.1,0.9,2,2,2c7.7,0,14,6.3,14,14c0,1.1,0.9,2,2,2h12c1.1,0,2-0.9,2-2
    C32,13.5,18.5,0,2,0z M18,30.2c0-8.8-7.2-16-16-16v-5c11.6,0,21,9.4,21,21H18z M25,30.2c0-12.7-10.3-23-23-23V2
    c15.5,0,28,12.6,28,28.2H25z"/>
  <path fill="#ffffff" d="M5.2,21.7C2.4,21.7,0,24.1,0,27s2.4,5.2,5.2,5.2c2.9,0,5.2-2.4,5.2-5.2S8.1,21.7,5.2,21.7z M5.2,30.2
    C3.5,30.2,2,28.7,2,27c0-1.8,1.5-3.2,3.2-3.2c1.8,0,3.2,1.5,3.2,3.2C8.5,28.7,7,30.2,5.2,30.2z"/>
</g>
</svg>
