<!-- Generator: Adobe Illustrator 18.1.1, SVG Export Plug-In  -->
<svg version="1.1"
   xmlns="http://www.w3.org/2000/svg" xmlns:xlink="http://www.w3.org/1999/xlink" xmlns:a="http://ns.adobe.com/AdobeSVGViewerExtensions/3.0/"
   x="0px" y="0px" width="32px" height="31px" viewBox="0 0 32 31" enable-background="new 0 0 32 31" xml:space="preserve">
<defs>
</defs>
<g>
  <path fill="#ffffff" d="M24.9,22c0-1.3,0-2.8-0.1-3.6c0.1,0.8,0.5,2.4,0.9,3.8l0.7,2.8H28V13h-1.9v1.9c0,1.2,0,2.9,0.1,3.7
    c-0.2-0.8-0.6-2.6-1-3.9L24.8,13H23v12h1.9V22z"/>
  <polygon fill="#ffffff" points="22,23 19,23 19,20 21,20 21,18 19,18 19,15 22,15 22,13 17,13 17,25 22,25   "/>
  <path fill="#ffffff" d="M13,20.2h0.4c1.5,0,2.6-1.1,2.6-3.7c0-2.6-1.1-3.5-2.4-3.5H11v12h2V20.2z M13,14.8h0.3
    c0.5,0,0.6,0.4,0.6,1.7c0,1.3-0.1,1.8-0.6,1.8H13V14.8z"/>
  <path fill="#ffffff" d="M30,7l-8.2,0l-5-6.6C16.6,0.1,16.3,0,16,0s-0.6,0.1-0.8,0.4l-5,6.6L2,7C0.9,7,0,7.9,0,9v20c0,1.1,0.9,2,2,2
    h28c1.1,0,2-0.9,2-2V9C32,7.9,31.1,7,30,7z M12.8,7L16,2.6L19.2,7H12.8z M30,29H2V9h28V29z"/>
  <path fill="#ffffff" d="M7,25c2.1,0,3-1.7,3-6c0-4.3-0.9-6-3-6s-3,1.7-3,6C4,23.3,4.9,25,7,25z M7,15c0.5,0,0.6,0.5,0.6,4
    c0,3.5-0.1,4-0.6,4c-0.4,0-0.6-0.5-0.6-4C6.4,15.4,6.5,15,7,15z"/>
</g>
</svg>
